# xmcd
#
# Track frame offsets:
# 150
# 16325
# 31165
# 46235
# 59461
# 74374
# 87122
# 101745
# 113486
# 126694
# 145368
# 158951
# 174824
# 192041
# 207367
# 225744
# 238848
# 252993
# 268329
# 281684
# 298640
# 313118
# 328244
# 343674
#
# Disc length: 4755 seconds
#
#
# Revision: 0
# Processed by: cddbd v1.5.1PL2 Copyright (c) Steve Scherf et al.
# Submitted via: FreeRIP 2.90 
#
DISCID=6f129118
DTITLE=coletanes - Só Modão
DYEAR=0006
DGENRE=A Cappella
TTITLE0=Reino encantado - Daniel
TTITLE1=Sublime Renuncia - Leandro e Leonardo
TTITLE2=Peito Sadio - Peao Carreiro e Zé Paulo
TTITLE3=Saco de Ouro - Chitão e Xororó
TTITLE4=Cutelinho - Tonico e Tinoco
TTITLE5=Chalana - Sérgio Reis
TTITLE6=Lembranças - Chrystian e Ralf
TTITLE7=60 dias apaixonado - Milionário e José Rico
TTITLE8=Dama de Vermelho - Duduca e Dalvan
TTITLE9=Colcha de Retalhos - Chitão e Xororó
TTITLE10=Vestido de seda - Teodoro e sampaio
TTITLE11=Prato do dia - Daniel
TTITLE12=Porta do Mundo - Tião Carreiro e Pardinho
TTITLE13=Ipê florido - Chrystian e Ralf
TTITLE14=Falso Juramento - Teodoro e Sampaio
TTITLE15=Menino da Porteira - Tonico e Tinoco
TTITLE16=Noite de Tortura - Crhystian e Ralf
TTITLE17=O Começo do fim - Tião Carreiro e Pardinho
TTITLE18=Rei do Gado - Tião carreiro e pardinho
TTITLE19=Boi doente - João Paulo e Daniel
TTITLE20=Poeira da Estrada - João paulo e Daniel
TTITLE21=Soberano - Tião Carreiro e Pardinho
TTITLE22=Triangulo Mineiro - Goiano e Paranaense
TTITLE23=Filho Adotivo - Sérgio Reis
EXTD=
EXTT0=
EXTT1=
EXTT2=
EXTT3=
EXTT4=
EXTT5=
EXTT6=
EXTT7=
EXTT8=
EXTT9=
EXTT10=
EXTT11=
EXTT12=
EXTT13=
EXTT14=
EXTT15=
EXTT16=
EXTT17=
EXTT18=
EXTT19=
EXTT20=
EXTT21=
EXTT22=
EXTT23=
PLAYORDER=
